<svg width="0" height="0" class="hidden">
  <symbol xmlns="http://www.w3.org/2000/svg" viewBox="0 0 24 24" id="card">
    <path fill-rule="evenodd" clip-rule="evenodd" d="M0 6C0 4.34315 1.34315 3 3 3H21C22.6569 3 24 4.34315 24 6V18C24 19.6569 22.6569 21 21 21H3C1.34315 21 0 19.6569 0 18V6ZM2 6C2 5.44772 2.44772 5 3 5H21C21.5523 5 22 5.44772 22 6V9H2V6ZM22 11V18C22 18.5523 21.5523 19 21 19H3C2.44772 19 2 18.5523 2 18V11H22Z"></path>
  </symbol>
  <symbol xmlns="http://www.w3.org/2000/svg" viewBox="0 0 24 24" id="favorite-none">
    <path fill-rule="evenodd" clip-rule="evenodd" d="M9.7587 2H14.2413C15.0463 1.99999 15.7106 1.99998 16.2518 2.04419C16.8139 2.09012 17.3306 2.18868 17.816 2.43597C18.5686 2.81947 19.1805 3.43139 19.564 4.18404C19.8113 4.66937 19.9099 5.18608 19.9558 5.74817C20 6.28938 20 6.95374 20 7.75872V21C20 21.3746 19.7907 21.7178 19.4576 21.8892C19.1245 22.0606 18.7236 22.0315 18.4188 21.8137L12 17.2289L5.58124 21.8137C5.27642 22.0315 4.87549 22.0606 4.54242 21.8892C4.20935 21.7178 4 21.3746 4 21L4 7.7587C3.99999 6.95373 3.99998 6.28937 4.04419 5.74817C4.09012 5.18608 4.18868 4.66937 4.43597 4.18404C4.81947 3.43139 5.43139 2.81947 6.18404 2.43597C6.66937 2.18868 7.18608 2.09012 7.74818 2.04419C8.28937 1.99998 8.95373 1.99999 9.7587 2ZM7.91104 4.03755C7.47262 4.07337 7.24842 4.1383 7.09202 4.21799C6.7157 4.40973 6.40973 4.7157 6.21799 5.09202C6.1383 5.24842 6.07337 5.47262 6.03755 5.91104C6.00078 6.36113 6 6.94342 6 7.8V19.0568L11.4188 15.1863C11.7665 14.9379 12.2335 14.9379 12.5812 15.1863L18 19.0568V7.8C18 6.94342 17.9992 6.36113 17.9624 5.91104C17.9266 5.47262 17.8617 5.24842 17.782 5.09202C17.5903 4.7157 17.2843 4.40973 16.908 4.21799C16.7516 4.1383 16.5274 4.07337 16.089 4.03755C15.6389 4.00078 15.0566 4 14.2 4H9.8C8.94342 4 8.36113 4.00078 7.91104 4.03755Z"></path>
  </symbol>
  <symbol xmlns="http://www.w3.org/2000/svg" viewBox="0 0 24 24" id="favorite">
    <path d="M9.7587 2C8.95374 1.99999 8.28937 1.99998 7.74818 2.04419C7.18608 2.09012 6.66937 2.18868 6.18404 2.43598C5.43139 2.81947 4.81947 3.43139 4.43598 4.18404C4.18868 4.66937 4.09012 5.18608 4.04419 5.74818C3.99998 6.28937 3.99999 6.95372 4 7.75868V21C4 21.3746 4.20935 21.7178 4.54242 21.8892C4.87549 22.0606 5.27643 22.0315 5.58124 21.8137L12 17.2289L18.4188 21.8137C18.7236 22.0315 19.1245 22.0606 19.4576 21.8892C19.7907 21.7178 20 21.3746 20 21V7.75873C20 6.95374 20 6.28938 19.9558 5.74818C19.9099 5.18608 19.8113 4.66937 19.564 4.18404C19.1805 3.43139 18.5686 2.81947 17.816 2.43598C17.3306 2.18868 16.8139 2.09012 16.2518 2.04419C15.7106 1.99998 15.0463 1.99999 14.2413 2H9.7587Z"></path>
  </symbol>
  <symbol xmlns="http://www.w3.org/2000/svg" viewBox="0 0 24 24" id="film">
    <path fill-rule="evenodd" clip-rule="evenodd" d="M1 4.18V19.82C1 21.5763 2.42373 23 4.18 23H19.82C21.5763 23 23 21.5763 23 19.82V4.18C23 2.42373 21.5763 1 19.82 1H4.18C2.42373 1 1 2.42373 1 4.18ZM3 4.18C3 3.5283 3.5283 3 4.18 3H6V6H3V4.18ZM3 8H6V11H3V8ZM21 6V4.18C21 3.5283 20.4717 3 19.82 3H18V6H21ZM18 8H21V11H18V8ZM16 3H8V11H16V3ZM21 13V16H18V13H21ZM21 18H18V21H19.82C20.4717 21 21 20.4717 21 19.82V18ZM16 13V21H8V13H16ZM3 18V19.82C3 20.4717 3.5283 21 4.18 21H6V18H3ZM6 16H3V13H6V16Z"></path>
  </symbol>
  <symbol xmlns="http://www.w3.org/2000/svg" viewBox="0 0 24 24" id="home">
    <path fill-rule="evenodd" clip-rule="evenodd" d="M12.6139 1.21065C12.2528 0.929784 11.7472 0.929784 11.3861 1.21065L2.38606 8.21065C2.14247 8.4001 2 8.69141 2 9V20C2 20.7957 2.31607 21.5587 2.87868 22.1213C3.44129 22.6839 4.20435 23 5 23H19C19.7957 23 20.5587 22.6839 21.1213 22.1213C21.6839 21.5587 22 20.7957 22 20V9C22 8.69141 21.8575 8.4001 21.6139 8.21065L12.6139 1.21065ZM16 21H19C19.2652 21 19.5196 20.8946 19.7071 20.7071C19.8946 20.5196 20 20.2652 20 20V9.48908L12 3.26686L4 9.48908V20C4 20.2652 4.10536 20.5196 4.29289 20.7071C4.48043 20.8946 4.73478 21 5 21H8V12C8 11.4477 8.44772 11 9 11H15C15.5523 11 16 11.4477 16 12V21ZM10 21V13H14V21H10Z"></path>
  </symbol>
</svg>