<svg xmlns="http://www.w3.org/2000/svg" width="115" height="37" fill="none"><rect width="8" height="36" y="2.881" fill="#D20000" rx="1" transform="rotate(-21.105 0 2.88)"/><path fill="#D20000" d="M37.633 1.2a1 1 0 0 1 1.293-.573l5.597 2.16a1 1 0 0 1 .573 1.293L32.856 35.8a1 1 0 0 1-1.293.573l-5.597-2.16a1 1 0 0 1-.573-1.293L37.633 1.2Z"/><rect width="2.447" height="11.735" x="21.961" y="18.267" fill="#D20000" rx="1.224" transform="rotate(30.344 21.96 18.267)"/><rect width="2.447" height="11.735" x="21.033" y="19.503" fill="#D20000" rx="1.224" transform="rotate(-30.34 21.033 19.503)"/><path fill="#fff" d="M46.207 28V17.09h2.884v1.926h.128a3.026 3.026 0 0 1 1.136-1.513c.53-.37 1.165-.554 1.904-.554.748 0 1.385.187 1.91.56.526.37.876.872 1.051 1.507h.114a2.902 2.902 0 0 1 1.207-1.499c.587-.379 1.281-.568 2.081-.568 1.018 0 1.844.324 2.479.973.64.644.959 1.558.959 2.741V28H59.04v-6.74c0-.606-.16-1.06-.483-1.364-.322-.303-.724-.454-1.207-.454-.55 0-.978.175-1.286.525-.307.346-.461.803-.461 1.371V28H52.67v-6.804c0-.535-.153-.961-.461-1.278-.303-.318-.703-.476-1.2-.476-.337 0-.64.085-.91.255-.265.166-.475.4-.632.704-.156.298-.234.648-.234 1.05V28h-3.026Zm23.172.213c-1.104 0-2.058-.234-2.863-.703a4.81 4.81 0 0 1-1.853-1.975c-.436-.847-.654-1.83-.654-2.947 0-1.127.218-2.112.654-2.954a4.754 4.754 0 0 1 1.853-1.975c.805-.473 1.76-.71 2.863-.71s2.054.237 2.855.71a4.741 4.741 0 0 1 1.86 1.975c.436.842.654 1.827.654 2.954 0 1.117-.218 2.1-.654 2.947a4.797 4.797 0 0 1-1.86 1.975c-.8.469-1.752.703-2.855.703Zm.014-2.344c.502 0 .92-.142 1.257-.426.336-.289.59-.682.76-1.179.175-.497.263-1.063.263-1.697 0-.635-.088-1.2-.263-1.698-.17-.497-.424-.89-.76-1.179-.336-.289-.755-.433-1.257-.433-.507 0-.933.144-1.279.433-.34.29-.599.682-.774 1.18-.17.496-.255 1.062-.255 1.697 0 .634.085 1.2.255 1.697.175.497.433.89.774 1.18.346.283.772.425 1.279.425Zm17.141-8.778L82.72 28h-3.409l-3.814-10.91h3.196l2.266 7.806h.113l2.259-7.805h3.203ZM88.082 28V17.09h3.026V28h-3.026Zm1.52-12.315c-.45 0-.835-.15-1.157-.448a1.45 1.45 0 0 1-.476-1.086c0-.417.158-.775.476-1.073a1.63 1.63 0 0 1 1.157-.454c.45 0 .834.151 1.15.454.323.298.484.656.484 1.073 0 .421-.161.783-.483 1.086-.317.299-.7.448-1.15.448Zm8.901 12.528c-1.122 0-2.088-.227-2.897-.682a4.668 4.668 0 0 1-1.861-1.946c-.436-.843-.654-1.84-.654-2.99 0-1.122.218-2.107.654-2.954a4.83 4.83 0 0 1 1.84-1.982c.795-.473 1.727-.71 2.797-.71.72 0 1.39.116 2.01.348a4.46 4.46 0 0 1 1.634 1.03c.469.459.833 1.037 1.094 1.733.26.69.39 1.5.39 2.429v.83h-9.211v-1.874h6.363c0-.436-.094-.822-.284-1.158a2.032 2.032 0 0 0-.788-.788 2.248 2.248 0 0 0-1.158-.292c-.46 0-.866.107-1.221.32a2.24 2.24 0 0 0-.824.845c-.2.35-.3.741-.306 1.172v1.783c0 .54.1 1.006.299 1.399.203.393.49.696.859.909.37.213.807.32 1.314.32.336 0 .644-.048.923-.142.28-.095.519-.237.718-.427.198-.189.35-.421.454-.696l2.798.185a3.823 3.823 0 0 1-.873 1.761c-.436.498-.999.886-1.691 1.165-.686.275-1.48.412-2.379.412Zm16.058-8.011-2.769.17a1.442 1.442 0 0 0-.306-.639 1.616 1.616 0 0 0-.618-.462 2.097 2.097 0 0 0-.902-.177c-.468 0-.864.1-1.186.298-.322.194-.483.455-.483.781 0 .26.104.48.313.66.208.18.566.325 1.072.434l1.975.398c1.06.218 1.851.568 2.372 1.05.521.484.781 1.118.781 1.904 0 .715-.211 1.343-.632 1.882-.417.54-.99.962-1.719 1.265-.724.298-1.56.447-2.507.447-1.444 0-2.595-.3-3.452-.902-.852-.606-1.351-1.43-1.498-2.471l2.976-.157c.09.44.307.777.653 1.009.346.227.788.34 1.328.34.53 0 .957-.101 1.279-.305.326-.208.492-.476.497-.802a.836.836 0 0 0-.348-.675c-.228-.18-.578-.317-1.051-.412l-1.89-.376c-1.065-.213-1.858-.583-2.379-1.108-.516-.526-.774-1.196-.774-2.01 0-.701.189-1.305.568-1.811.384-.507.921-.898 1.612-1.172.696-.275 1.511-.412 2.444-.412 1.377 0 2.462.291 3.252.873.796.583 1.26 1.376 1.392 2.38Z"/></svg>