<svg xmlns="http://www.w3.org/2000/svg" width="100" height="37" fill="none"><rect width="8" height="36" y="2.881" fill="#D20000" rx="1" transform="rotate(-21.105 0 2.88)"/><path fill="#D20000" d="M37.633 1.2a1 1 0 0 1 1.293-.573l5.597 2.16a1 1 0 0 1 .573 1.293L32.856 35.8a1 1 0 0 1-1.293.573l-5.597-2.16a1 1 0 0 1-.573-1.293L37.633 1.2Z"/><rect width="2.447" height="11.735" x="21.961" y="18.267" fill="#D20000" rx="1.224" transform="rotate(30.344 21.96 18.267)"/><rect width="2.447" height="11.735" x="21.033" y="19.503" fill="#D20000" rx="1.224" transform="rotate(-30.34 21.033 19.503)"/><path fill="#fff" d="M45.906 26v-8.182h2.162v1.444h.096c.17-.48.455-.858.852-1.135.398-.277.874-.415 1.428-.415.561 0 1.039.14 1.433.42.394.277.657.654.788 1.13h.085c.167-.469.47-.844.906-1.124.44-.284.96-.426 1.56-.426.764 0 1.384.243 1.86.73.479.482.719 1.168.719 2.055V26H55.53v-5.055c0-.455-.12-.796-.362-1.023a1.27 1.27 0 0 0-.906-.34c-.412 0-.733.13-.964.393-.23.26-.346.602-.346 1.029V26h-2.2v-5.103c0-.401-.116-.72-.346-.959-.228-.238-.528-.357-.9-.357-.253 0-.48.064-.682.192-.2.124-.357.3-.475.527a1.676 1.676 0 0 0-.175.789V26h-2.27Zm17.378.16c-.828 0-1.543-.176-2.147-.527a3.61 3.61 0 0 1-1.39-1.481c-.327-.636-.49-1.373-.49-2.21 0-.846.163-1.585.49-2.217.327-.636.79-1.13 1.39-1.48.604-.356 1.32-.533 2.147-.533.827 0 1.541.177 2.141.532a3.556 3.556 0 0 1 1.396 1.481c.326.632.49 1.37.49 2.216 0 .838-.164 1.575-.49 2.21a3.599 3.599 0 0 1-1.396 1.482c-.6.351-1.314.527-2.141.527Zm.01-1.758c.377 0 .691-.107.943-.32.253-.216.443-.511.57-.884.132-.373.197-.797.197-1.273 0-.476-.065-.9-.197-1.273-.127-.373-.317-.668-.57-.884-.252-.217-.566-.325-.942-.325-.38 0-.7.108-.96.325-.255.216-.449.511-.58.884a3.916 3.916 0 0 0-.192 1.273c0 .476.064.9.192 1.273.131.373.325.668.58.884.26.213.58.32.96.32Zm12.857-6.584L73.29 26h-2.558l-2.86-8.182h2.397l1.7 5.854h.084l1.694-5.854h2.403ZM77.31 26v-8.182h2.27V26h-2.27Zm1.14-9.236c-.337 0-.626-.112-.867-.336a1.088 1.088 0 0 1-.357-.815c0-.313.118-.58.356-.804.242-.228.531-.341.869-.341.337 0 .625.113.863.34.241.224.362.492.362.805 0 .316-.12.588-.362.815a1.214 1.214 0 0 1-.863.335Zm6.676 9.396c-.841 0-1.566-.17-2.173-.512a3.501 3.501 0 0 1-1.395-1.46c-.327-.631-.49-1.379-.49-2.242 0-.841.163-1.58.49-2.216a3.622 3.622 0 0 1 1.38-1.486c.596-.355 1.295-.532 2.098-.532.54 0 1.042.087 1.507.26.47.171.877.429 1.225.773.352.345.625.778.82 1.3.196.518.294 1.125.294 1.821v.624h-6.909v-1.406h4.773c0-.327-.071-.617-.213-.869a1.527 1.527 0 0 0-.592-.591 1.686 1.686 0 0 0-.868-.218c-.344 0-.65.08-.916.24a1.682 1.682 0 0 0-.618.633 1.79 1.79 0 0 0-.229.879v1.337c0 .405.075.755.224 1.05.152.294.367.521.644.681.277.16.606.24.986.24.252 0 .483-.036.692-.107a1.392 1.392 0 0 0 .879-.842l2.099.14a2.866 2.866 0 0 1-.655 1.32c-.327.373-.75.664-1.268.874-.515.206-1.11.309-1.785.309Zm12.044-6.009-2.077.128a1.075 1.075 0 0 0-.23-.48 1.215 1.215 0 0 0-.463-.346 1.574 1.574 0 0 0-.676-.133c-.352 0-.648.075-.89.224-.241.146-.362.34-.362.586 0 .195.078.36.234.495.157.135.425.244.805.325l1.48.299c.796.163 1.389.426 1.78.788.39.362.585.838.585 1.428 0 .536-.157 1.006-.474 1.411-.312.405-.742.72-1.289.948-.543.224-1.17.336-1.88.336-1.083 0-1.946-.226-2.589-.677a2.636 2.636 0 0 1-1.124-1.853l2.232-.118c.068.33.231.583.49.757.26.17.591.256.996.256.398 0 .718-.077.96-.23.244-.156.368-.356.372-.602a.626.626 0 0 0-.261-.506c-.17-.134-.433-.237-.788-.308l-1.417-.283c-.8-.16-1.394-.437-1.785-.83-.387-.395-.58-.897-.58-1.508 0-.526.142-.979.426-1.358.287-.38.69-.673 1.209-.88.522-.205 1.133-.308 1.832-.308 1.034 0 1.847.218 2.44.655.597.437.945 1.031 1.044 1.784Z"/></svg>